<svg viewBox="0 0 100 100" xmlns="http://www.w3.org/2000/svg" fill="none">
  <polygon points="72,5 94,20 94,50 72,65 50,50 50,20" fill="#e8a838" fill-opacity=".45"/>
  <polygon points="72,5 94,20 94,50 72,65 50,50 50,20" fill="none" stroke="#e8a838" stroke-opacity=".65" stroke-width="3"/>
  <g transform="translate(5.5,3.75)">
    <polygon points="28,5 50,20 50,50 28,65 6,50 6,20" fill="#e8a838" fill-opacity=".2"/>
    <polygon points="28,5 50,20 50,50 28,65 6,50 6,20" fill="none" stroke="#e8a838" stroke-opacity=".25" stroke-width="3"/>
  </g>
  <g transform="translate(0,-15)">
    <polygon points="50,50 72,65 72,95 50,110 28,95 28,65" fill="#e8a838" fill-opacity=".3"/>
    <polygon points="50,50 72,65 72,95 50,110 28,95 28,65" fill="none" stroke="#e8a838" stroke-opacity=".4" stroke-width="3"/>
  </g>
  <polygon points="50,20 72,35 72,65 50,80 28,65 28,35" fill="#e8a838"/>
</svg>
